<?xml version="1.0" encoding="utf-8"?>
<!-- Generator: Adobe Illustrator 27.5.0, SVG Export Plug-In . SVG Version: 6.00 Build 0)  -->
<svg version="1.1" xmlns="http://www.w3.org/2000/svg" xmlns:xlink="http://www.w3.org/1999/xlink" x="0px" y="0px"
	 viewBox="0 0 500 500" style="enable-background:new 0 0 500 500;" xml:space="preserve">
<g id="BACKGROUND">
	<rect style="fill:#FFFFFF;" width="500" height="500"/>
	<g>
		<g style="opacity:0.3;">
			<path style="fill:none;stroke:#2C54AC;stroke-width:1.0454;stroke-miterlimit:10;stroke-dasharray:4.3168,4.3168;" d="
				M137.773,442.176c21.311-0.235,41.815-7.337,62.749-11.2c25.055-4.623,51.022-4.581,76.061,0.124
				c26.549,4.988,52.092,15.153,79.054,17.209c45.04,3.435,81.085-17.993,106.503-54.115c25.418-36.122,29.08-85.538,9.247-124.796
				c-6.751-13.363-15.953-25.516-21.992-39.193c-19.81-44.864,13.255-117.208-17.042-156.211
				c-16.515-21.26-44.291-32.472-71.737-34.072c-27.446-1.6-54.713,11.434-80.352,21.039c-24.726,9.264-57.83,30.547-83.784,25.292
				c-18.069-3.659-33.325-15.271-50.846-20.897c-37.288-11.973-80.508,6.619-102.337,38.212
				C21.47,135.161,18.916,176.64,29.456,213.243c6.336,22.001,17.132,43.332,17.198,66.171c0.043,14.991-4.578,29.578-7.071,44.374
				C29.918,381.146,75.096,442.867,137.773,442.176z"/>
		</g>
		<path style="opacity:0.3;fill:#9DDCF9;" d="M113.426,425.669c21.166,2.41,42.443-2.091,63.716-3.326
			c25.462-1.478,51.208,1.785,75.417,9.555c25.668,8.239,49.653,21.488,76.119,26.871c44.212,8.992,82.718-16.675,112.716-49.346
			c29.998-32.671,40.182-81.225,25.719-122.618c-4.923-14.09-12.438-27.283-16.614-41.597
			c-13.697-46.95,25.832-95.665,5.409-140.511c-11.113-24.402-34.105-40.357-61.112-45.347c-27.007-4.991-63.982-1.396-90.683,4.951
			c-25.751,6.121-60.226,24.095-85.269,15.665c-17.435-5.869-31.025-19.278-47.655-27.03
			c-35.392-16.499-80.722-3.419-106.559,25.205C38.793,106.766,30.76,147.585,36.36,185.194
			c3.366,22.605,11.244,45.099,8.282,67.757c-1.945,14.872-8.462,28.766-12.896,43.13
			C14.554,351.767,51.175,418.582,113.426,425.669z"/>
	</g>
</g>
<g id="OBJECTS">
	<g>
		
			<ellipse transform="matrix(0.1568 -0.9876 0.9876 0.1568 -15.9838 200.2139)" style="fill:#2C54AC;" cx="109.265" cy="109.468" rx="79.468" ry="79.468"/>
		<ellipse style="fill:none;stroke:#2C54AC;stroke-miterlimit:10;" cx="108.992" cy="109.468" rx="86.757" ry="79.468"/>
		<polygon style="fill:#2C54AC;" points="78.42,177.389 98.307,215.698 98.855,173.962 		"/>
		<g>
			<g>
				<path style="fill:#55A3F3;" d="M104.365,136.44l-1.338-7.87c-0.841-4.95-0.927-9.187-0.251-12.716
					c0.673-3.526,1.774-6.642,3.301-9.346c1.527-2.704,3.119-5.164,4.78-7.382c2.253-2.928,4.212-5.782,5.879-8.562
					c1.667-2.778,2.164-6.148,1.491-10.109c-0.37-2.176-1.227-3.916-2.567-5.217c-1.342-1.3-2.852-2.239-4.528-2.821
					c-1.679-0.579-3.259-0.745-4.744-0.493c-2.873,0.488-5.158,1.564-6.861,3.229c-1.703,1.665-2.998,3.642-3.881,5.931
					c-0.886,2.29-1.578,4.649-2.082,7.077l-4.045,0.687l-14.395-5.804c0.291-1.883,0.944-4.336,1.958-7.361
					c1.014-3.022,2.645-6.152,4.898-9.389c2.251-3.233,5.271-6.14,9.06-8.721c3.787-2.577,8.554-4.357,14.297-5.333
					c5.643-0.959,10.879-0.855,15.713,0.309c4.832,1.165,8.926,3.525,12.281,7.081c3.354,3.555,5.587,8.599,6.697,15.134
					c0.926,5.446,0.932,9.978,0.018,13.595c-0.913,3.619-2.262,6.778-4.043,9.472c-1.783,2.698-3.571,5.369-5.361,8.016
					c-1.398,1.971-2.691,4.1-3.88,6.389c-1.191,2.291-2.003,4.847-2.439,7.672c-0.437,2.824-0.335,6.118,0.304,9.88l0.53,3.118
					L104.365,136.44z M120.085,166.008c-3.564,0.606-6.65,0.137-9.253-1.406c-2.607-1.544-4.177-3.898-4.715-7.068
					c-0.521-3.068,0.203-5.84,2.177-8.315c1.971-2.474,4.691-4.006,8.157-4.595c3.464-0.589,6.488-0.033,9.069,1.667
					c2.581,1.701,4.132,4.087,4.654,7.154c0.539,3.17-0.119,5.902-1.967,8.203C126.355,163.949,123.649,165.402,120.085,166.008z"/>
			</g>
			<g>
				<path style="fill:#FFFFFF;" d="M100.32,137.128l-1.337-7.87c-0.841-4.95-0.927-9.187-0.251-12.716
					c0.673-3.526,1.774-6.642,3.301-9.346c1.527-2.704,3.119-5.164,4.78-7.382c2.253-2.928,4.212-5.782,5.879-8.562
					c1.667-2.778,2.164-6.147,1.491-10.108c-0.37-2.176-1.227-3.917-2.567-5.217c-1.342-1.3-2.851-2.239-4.528-2.821
					c-1.679-0.579-3.259-0.745-4.744-0.493c-2.873,0.488-5.158,1.564-6.861,3.229c-1.703,1.665-2.998,3.642-3.881,5.931
					c-0.886,2.29-1.578,4.649-2.083,7.077l-18.44-5.117c0.291-1.883,0.944-4.336,1.958-7.361c1.014-3.022,2.645-6.152,4.898-9.389
					c2.251-3.233,5.271-6.14,9.06-8.721c3.787-2.577,8.554-4.357,14.296-5.333c5.643-0.959,10.879-0.855,15.714,0.309
					c4.832,1.165,8.926,3.525,12.28,7.081c3.355,3.555,5.587,8.599,6.698,15.133c0.926,5.446,0.932,9.978,0.018,13.595
					c-0.913,3.619-2.262,6.778-4.043,9.473c-1.783,2.698-3.571,5.369-5.361,8.016c-1.398,1.971-2.69,4.1-3.88,6.389
					c-1.191,2.291-2.003,4.847-2.439,7.672c-0.437,2.824-0.336,6.118,0.304,9.88l0.53,3.118L100.32,137.128z M116.04,166.695
					c-3.564,0.606-6.65,0.137-9.253-1.406c-2.607-1.544-4.176-3.898-4.715-7.067c-0.521-3.068,0.203-5.84,2.177-8.315
					c1.972-2.474,4.691-4.006,8.157-4.595c3.464-0.589,6.488-0.033,9.069,1.667c2.581,1.701,4.132,4.087,4.654,7.155
					c0.539,3.17-0.119,5.902-1.967,8.203C122.31,164.637,119.604,166.089,116.04,166.695z"/>
			</g>
		</g>
	</g>
	<g>
		
			<ellipse transform="matrix(0.5075 -0.8617 0.8617 0.5075 113.7077 387.0679)" style="fill:#55A3F3;" cx="395.429" cy="94.072" rx="67.037" ry="67.037"/>
		
			<ellipse transform="matrix(0.3287 -0.9444 0.9444 0.3287 176.5152 436.3398)" style="fill:none;stroke:#55A3F3;stroke-miterlimit:10;" cx="395.211" cy="93.996" rx="67.037" ry="73.185"/>
		<polygon style="fill:#55A3F3;" points="427.246,149.732 412.105,182.847 409.885,147.707 		"/>
		<g>
			<g>
				<path style="fill:#2C54AC;" d="M384.045,114.201l1.117-6.641c0.703-4.177,1.81-7.576,3.326-10.2
					c1.514-2.622,3.255-4.8,5.222-6.531c1.966-1.731,3.917-3.249,5.856-4.556c2.607-1.708,4.959-3.438,7.058-5.191
					c2.099-1.751,3.429-4.298,3.991-7.64c0.309-1.836,0.109-3.46-0.599-4.868c-0.709-1.408-1.651-2.575-2.825-3.503
					c-1.177-0.927-2.39-1.497-3.643-1.708c-2.424-0.408-4.543-0.185-6.362,0.669c-1.818,0.854-3.398,2.07-4.737,3.649
					c-1.341,1.579-2.546,3.266-3.621,5.06l-3.413-0.574l-9.859-8.616c0.754-1.419,1.954-3.193,3.601-5.321
					c1.646-2.127,3.814-4.168,6.506-6.122c2.69-1.951,5.902-3.43,9.636-4.435c3.732-1.003,8.023-1.099,12.869-0.284
					c4.761,0.801,8.904,2.335,12.433,4.604c3.526,2.268,6.134,5.284,7.82,9.047c1.687,3.762,2.066,8.4,1.139,13.914
					c-0.773,4.595-2.025,8.208-3.756,10.836c-1.731,2.63-3.682,4.772-5.848,6.425c-2.169,1.655-4.334,3.287-6.493,4.899
					c-1.661,1.182-3.281,2.52-4.863,4.014c-1.584,1.495-2.94,3.306-4.071,5.436c-1.131,2.129-1.964,4.781-2.498,7.955l-0.443,2.631
					L384.045,114.201z M388.369,142.117c-3.007-0.506-5.336-1.735-6.982-3.686c-1.649-1.953-2.246-4.264-1.797-6.938
					c0.435-2.589,1.782-4.597,4.041-6.021c2.257-1.424,4.848-1.891,7.773-1.398c2.923,0.492,5.178,1.773,6.763,3.843
					c1.584,2.071,2.159,4.402,1.723,6.99c-0.45,2.675-1.732,4.669-3.842,5.99C393.935,142.216,391.376,142.622,388.369,142.117z"/>
			</g>
			<g>
				<path style="fill:#FFFFFF;" d="M380.632,113.627l1.117-6.641c0.702-4.177,1.81-7.576,3.326-10.2
					c1.514-2.622,3.255-4.799,5.222-6.531c1.966-1.731,3.917-3.249,5.856-4.556c2.607-1.707,4.959-3.438,7.058-5.191
					c2.099-1.751,3.429-4.298,3.991-7.64c0.309-1.837,0.109-3.461-0.599-4.868c-0.709-1.408-1.651-2.575-2.825-3.503
					c-1.177-0.927-2.39-1.497-3.643-1.708c-2.424-0.408-4.543-0.185-6.362,0.669c-1.819,0.854-3.399,2.07-4.737,3.649
					c-1.341,1.579-2.546,3.266-3.622,5.06l-13.272-9.191c0.754-1.419,1.954-3.193,3.601-5.321c1.646-2.127,3.814-4.168,6.506-6.121
					c2.69-1.951,5.902-3.43,9.636-4.435c3.732-1.003,8.023-1.099,12.869-0.284c4.761,0.801,8.904,2.336,12.433,4.604
					c3.526,2.268,6.134,5.284,7.82,9.047c1.687,3.762,2.066,8.4,1.139,13.914c-0.773,4.596-2.025,8.208-3.756,10.836
					c-1.731,2.63-3.682,4.773-5.848,6.425c-2.169,1.655-4.334,3.287-6.494,4.899c-1.66,1.182-3.281,2.52-4.863,4.014
					c-1.584,1.495-2.94,3.306-4.071,5.436c-1.131,2.129-1.964,4.782-2.498,7.955l-0.443,2.631L380.632,113.627z M384.956,141.543
					c-3.007-0.506-5.336-1.735-6.982-3.687c-1.649-1.953-2.246-4.264-1.797-6.938c0.435-2.589,1.782-4.597,4.041-6.021
					c2.257-1.424,4.848-1.891,7.773-1.398c2.923,0.492,5.178,1.773,6.763,3.843c1.584,2.071,2.159,4.402,1.723,6.99
					c-0.45,2.675-1.732,4.669-3.842,5.99C390.522,141.642,387.963,142.048,384.956,141.543z"/>
			</g>
		</g>
	</g>
	<g>
		
			<ellipse transform="matrix(0.3178 -0.9482 0.9482 0.3178 14.2677 362.363)" style="fill:#0A2A6B;" cx="258.955" cy="171.266" rx="49.044" ry="49.044"/>
		
			<ellipse transform="matrix(0.2952 -0.9554 0.9554 0.2952 18.3089 367.9441)" style="fill:none;stroke:#0A2A6B;stroke-miterlimit:10;" cx="258.556" cy="171.562" rx="49.044" ry="53.42"/>
		<polygon style="fill:#0A2A6B;" points="257.515,217.986 243.593,235.285 245.298,214.211 		"/>
		<g>
			<g>
				<path style="fill:#55A3F3;" d="M253.318,186.17l-0.019-4.618c-0.012-2.904,0.34-5.33,1.06-7.28
					c0.718-1.948,1.641-3.622,2.768-5.021c1.127-1.398,2.268-2.652,3.426-3.76c1.563-1.457,2.951-2.901,4.165-4.329
					c1.214-1.428,1.816-3.303,1.807-5.627c-0.005-1.277-0.329-2.351-0.971-3.22c-0.643-0.869-1.415-1.548-2.317-2.038
					c-0.903-0.489-1.789-0.733-2.66-0.73c-1.685,0.007-3.091,0.404-4.221,1.193c-1.13,0.789-2.055,1.794-2.776,3.017
					c-0.722,1.223-1.34,2.504-1.858,3.841l-2.373,0.01l-7.665-4.674c0.344-1.047,0.949-2.385,1.814-4.015
					c0.865-1.629,2.092-3.261,3.683-4.894c1.59-1.632,3.589-3.005,5.995-4.119c2.405-1.112,5.293-1.677,8.663-1.691
					c3.311-0.013,6.289,0.541,8.937,1.663c2.647,1.122,4.76,2.856,6.338,5.202c1.578,2.346,2.374,5.436,2.39,9.27
					c0.013,3.195-0.413,5.782-1.276,7.76c-0.863,1.979-1.932,3.654-3.203,5.023c-1.273,1.371-2.546,2.726-3.817,4.067
					c-0.984,0.992-1.923,2.085-2.818,3.279c-0.897,1.195-1.602,2.576-2.118,4.147c-0.517,1.57-0.77,3.46-0.761,5.667l0.007,1.829
					L253.318,186.17z M259.491,204.529c-2.091,0.008-3.807-0.551-5.147-1.678c-1.342-1.128-2.014-2.62-2.022-4.479
					c-0.007-1.8,0.669-3.314,2.029-4.539c1.359-1.225,3.056-1.842,5.09-1.85c2.032-0.008,3.706,0.595,5.017,1.81
					c1.312,1.215,1.971,2.723,1.979,4.523c0.007,1.86-0.626,3.357-1.899,4.495C263.264,203.948,261.582,204.521,259.491,204.529z"/>
			</g>
			<g>
				<path style="fill:#FFFFFF;" d="M250.945,186.179l-0.019-4.618c-0.012-2.904,0.34-5.33,1.06-7.28
					c0.718-1.948,1.641-3.622,2.768-5.021c1.127-1.398,2.268-2.652,3.426-3.76c1.563-1.457,2.951-2.901,4.165-4.33
					c1.214-1.428,1.816-3.303,1.807-5.627c-0.005-1.277-0.329-2.351-0.971-3.22c-0.643-0.869-1.415-1.548-2.317-2.038
					c-0.903-0.489-1.789-0.733-2.661-0.73c-1.685,0.007-3.091,0.404-4.221,1.193c-1.13,0.789-2.055,1.794-2.776,3.017
					c-0.722,1.223-1.34,2.504-1.858,3.841l-10.038-4.665c0.344-1.047,0.949-2.385,1.814-4.015c0.865-1.629,2.091-3.26,3.683-4.894
					c1.59-1.632,3.589-3.005,5.995-4.119c2.405-1.113,5.293-1.677,8.663-1.691c3.311-0.013,6.289,0.541,8.938,1.663
					c2.647,1.122,4.76,2.856,6.338,5.202c1.578,2.346,2.375,5.436,2.39,9.269c0.013,3.195-0.412,5.782-1.276,7.76
					c-0.863,1.979-1.932,3.654-3.203,5.023c-1.273,1.371-2.546,2.726-3.817,4.067c-0.984,0.992-1.923,2.085-2.819,3.279
					c-0.896,1.195-1.602,2.577-2.118,4.147c-0.517,1.57-0.77,3.46-0.761,5.667l0.007,1.829L250.945,186.179z M257.118,204.539
					c-2.091,0.008-3.807-0.551-5.147-1.678c-1.342-1.128-2.014-2.619-2.022-4.479c-0.007-1.8,0.669-3.313,2.029-4.539
					c1.359-1.225,3.056-1.842,5.089-1.85c2.032-0.008,3.706,0.595,5.017,1.81c1.312,1.215,1.971,2.723,1.979,4.523
					c0.008,1.859-0.626,3.357-1.899,4.495C260.891,203.957,259.209,204.53,257.118,204.539z"/>
			</g>
		</g>
	</g>
	<g style="opacity:0.4;">
		<g>
			<path style="fill:#55A3F3;" d="M453.512,219.247l-0.835-4.14c-0.525-2.604-0.638-4.843-0.338-6.72
				c0.299-1.875,0.831-3.541,1.595-4.996c0.763-1.454,1.566-2.781,2.408-3.981c1.144-1.584,2.134-3.126,2.97-4.622
				c0.837-1.496,1.045-3.286,0.625-5.369c-0.231-1.145-0.712-2.051-1.442-2.717c-0.731-0.666-1.544-1.138-2.44-1.418
				c-0.897-0.279-1.735-0.341-2.517-0.184c-1.511,0.305-2.702,0.91-3.576,1.818c-0.874,0.908-1.527,1.974-1.957,3.199
				c-0.431,1.225-0.759,2.484-0.987,3.776l-9.833-2.408c0.123-1,0.429-2.308,0.916-3.924c0.487-1.615,1.299-3.296,2.438-5.044
				c1.138-1.746,2.688-3.332,4.65-4.758c1.961-1.424,4.453-2.442,7.473-3.051c2.968-0.598,5.739-0.628,8.314-0.091
				c2.574,0.538,4.777,1.72,6.608,3.546c1.831,1.826,3.093,4.457,3.786,7.894c0.577,2.865,0.654,5.261,0.229,7.189
				c-0.424,1.928-1.087,3.62-1.985,5.074c-0.899,1.455-1.802,2.897-2.705,4.325c-0.707,1.065-1.356,2.212-1.948,3.441
				c-0.593,1.231-0.981,2.596-1.166,4.096c-0.185,1.5-0.078,3.241,0.32,5.219l0.331,1.64L453.512,219.247z M462.302,234.628
				c-1.875,0.378-3.514,0.18-4.916-0.594c-1.404-0.774-2.272-1.994-2.608-3.661c-0.325-1.614,0.013-3.092,1.017-4.432
				c1.003-1.34,2.415-2.194,4.239-2.562c1.822-0.367,3.43-0.122,4.823,0.735c1.392,0.858,2.251,2.094,2.576,3.708
				c0.336,1.667,0.033,3.123-0.908,4.37C465.584,233.438,464.177,234.25,462.302,234.628z"/>
		</g>
		<g>
			<path style="fill:#55A3F3;" d="M46.654,279.414l-1.603-3.498c-1.008-2.2-1.576-4.162-1.701-5.889
				c-0.126-1.725-0.001-3.313,0.373-4.763c0.374-1.449,0.809-2.793,1.306-4.033c0.684-1.644,1.241-3.217,1.671-4.719
				c0.43-1.501,0.242-3.132-0.565-4.892c-0.443-0.967-1.059-1.671-1.845-2.109c-0.787-0.438-1.607-0.688-2.46-0.749
				c-0.854-0.061-1.61,0.059-2.27,0.361c-1.277,0.585-2.207,1.371-2.792,2.358c-0.586,0.987-0.942,2.069-1.069,3.245
				c-0.127,1.177-0.156,2.361-0.088,3.554l-9.223-0.086c-0.099-0.913-0.1-2.136-0.005-3.671c0.096-1.534,0.465-3.194,1.111-4.982
				c0.645-1.785,1.689-3.515,3.132-5.189c1.442-1.672,3.44-3.094,5.992-4.264c2.508-1.149,4.959-1.753,7.355-1.813
				c2.395-0.059,4.595,0.53,6.6,1.767c2.005,1.237,3.672,3.308,5.003,6.212c1.109,2.42,1.677,4.53,1.702,6.328
				c0.026,1.799-0.209,3.438-0.703,4.914c-0.494,1.478-0.994,2.945-1.497,4.4c-0.406,1.092-0.742,2.244-1.011,3.458
				c-0.269,1.215-0.329,2.507-0.18,3.876c0.148,1.369,0.606,2.891,1.372,4.562l0.635,1.386L46.654,279.414z M57.656,291.222
				c-1.584,0.726-3.079,0.892-4.484,0.498c-1.406-0.394-2.43-1.295-3.076-2.703c-0.625-1.363-0.633-2.745-0.022-4.143
				c0.61-1.397,1.685-2.449,3.226-3.156c1.54-0.705,3.017-0.823,4.43-0.353c1.413,0.471,2.433,1.388,3.058,2.752
				c0.646,1.409,0.68,2.763,0.106,4.065C60.319,289.483,59.24,290.496,57.656,291.222z"/>
		</g>
		<g>
			<path style="fill:#55A3F3;" d="M258.16,56.659l0.573-3.805c0.361-2.393,0.96-4.346,1.801-5.859
				c0.839-1.513,1.813-2.773,2.919-3.782c1.106-1.008,2.206-1.894,3.301-2.66c1.473-1.001,2.8-2.013,3.981-3.034
				c1.182-1.021,1.917-2.489,2.206-4.403c0.159-1.052,0.028-1.978-0.389-2.775c-0.419-0.797-0.968-1.455-1.648-1.974
				c-0.681-0.518-1.38-0.832-2.098-0.94c-1.389-0.209-2.597-0.061-3.628,0.444c-1.031,0.506-1.921,1.216-2.671,2.131
				c-0.751,0.915-1.423,1.891-2.02,2.926l-7.671-5.121c0.417-0.818,1.085-1.843,2.005-3.075c0.92-1.231,2.138-2.418,3.657-3.56
				c1.518-1.141,3.338-2.017,5.462-2.628c2.122-0.609,4.572-0.706,7.349-0.288c2.728,0.411,5.11,1.247,7.147,2.509
				c2.037,1.261,3.556,2.959,4.556,5.092c1,2.133,1.262,4.779,0.786,7.938c-0.397,2.633-1.077,4.709-2.04,6.227
				c-0.963,1.519-2.057,2.762-3.278,3.728c-1.223,0.966-2.444,1.92-3.662,2.862c-0.937,0.692-1.85,1.472-2.739,2.341
				c-0.89,0.869-1.647,1.917-2.273,3.145c-0.626,1.227-1.076,2.751-1.349,4.569l-0.227,1.507L258.16,56.659z M260.902,72.564
				c-1.723-0.26-3.065-0.939-4.025-2.038c-0.961-1.1-1.325-2.414-1.094-3.946c0.223-1.483,0.973-2.643,2.25-3.479
				c1.275-0.836,2.751-1.127,4.427-0.875c1.675,0.252,2.975,0.962,3.901,2.13c0.925,1.168,1.276,2.494,1.053,3.977
				c-0.231,1.532-0.944,2.684-2.137,3.459C264.083,72.566,262.625,72.824,260.902,72.564z"/>
		</g>
		<g>
			<path style="fill:#55A3F3;" d="M224.583,100.232l-0.578-3.068c-0.363-1.93-0.426-3.586-0.187-4.97
				c0.239-1.383,0.647-2.609,1.226-3.678c0.578-1.068,1.183-2.041,1.818-2.92c0.861-1.16,1.607-2.29,2.239-3.389
				c0.633-1.098,0.803-2.419,0.513-3.963c-0.16-0.849-0.507-1.523-1.04-2.022c-0.534-0.499-1.131-0.856-1.79-1.072
				c-0.661-0.215-1.28-0.269-1.859-0.16c-1.12,0.211-2.006,0.647-2.661,1.31c-0.654,0.663-1.147,1.445-1.476,2.346
				c-0.33,0.902-0.585,1.829-0.765,2.782l-7.246-1.872c0.101-0.738,0.339-1.702,0.714-2.892c0.376-1.189,0.991-2.424,1.85-3.705
				c0.858-1.28,2.018-2.438,3.482-3.473c1.463-1.034,3.314-1.763,5.553-2.185c2.2-0.414,4.248-0.41,6.147,0.011
				c1.897,0.422,3.515,1.316,4.851,2.683c1.337,1.367,2.245,3.324,2.724,5.871c0.4,2.123,0.434,3.895,0.102,5.316
				c-0.332,1.422-0.837,2.666-1.515,3.732c-0.679,1.067-1.359,2.125-2.04,3.172c-0.533,0.78-1.023,1.622-1.473,2.526
				c-0.45,0.904-0.749,1.909-0.9,3.017c-0.151,1.107-0.089,2.395,0.188,3.861l0.229,1.215L224.583,100.232z M230.936,111.684
				c-1.389,0.262-2.599,0.1-3.628-0.485c-1.03-0.586-1.66-1.495-1.893-2.731c-0.225-1.196,0.039-2.285,0.793-3.267
				c0.754-0.981,1.806-1.599,3.158-1.854c1.35-0.254,2.537-0.058,3.558,0.589c1.021,0.647,1.644,1.569,1.87,2.765
				c0.233,1.236-0.005,2.309-0.712,3.221C233.373,110.836,232.325,111.422,230.936,111.684z"/>
		</g>
		<g>
			<path style="fill:#55A3F3;" d="M290.284,99.99l0.559-2.237c0.352-1.407,0.82-2.538,1.408-3.393
				c0.587-0.855,1.239-1.551,1.957-2.09c0.717-0.538,1.424-1.004,2.12-1.399c0.935-0.513,1.785-1.041,2.548-1.583
				c0.763-0.542,1.285-1.375,1.566-2.501c0.155-0.618,0.13-1.178-0.074-1.678c-0.204-0.499-0.495-0.923-0.871-1.271
				c-0.377-0.348-0.776-0.575-1.198-0.68c-0.816-0.204-1.546-0.184-2.189,0.059c-0.643,0.243-1.215,0.616-1.714,1.119
				c-0.5,0.503-0.956,1.047-1.371,1.631l-4.284-3.492c0.295-0.464,0.752-1.038,1.371-1.72c0.619-0.682,1.413-1.321,2.384-1.916
				c0.97-0.594,2.106-1.013,3.408-1.256c1.301-0.243,2.768-0.161,4.4,0.247c1.604,0.401,2.977,1.035,4.121,1.904
				c1.143,0.868,1.952,1.967,2.427,3.297c0.475,1.329,0.481,2.923,0.017,4.78c-0.387,1.548-0.911,2.747-1.572,3.598
				c-0.661,0.851-1.384,1.531-2.168,2.037c-0.784,0.507-1.567,1.006-2.347,1.499c-0.598,0.359-1.187,0.773-1.767,1.24
				c-0.581,0.468-1.092,1.05-1.535,1.747c-0.443,0.696-0.798,1.58-1.065,2.649l-0.221,0.886L290.284,99.99z M291.014,109.633
				c-1.013-0.253-1.775-0.735-2.285-1.445c-0.511-0.711-0.653-1.515-0.428-2.416c0.218-0.872,0.731-1.521,1.54-1.947
				c0.808-0.426,1.705-0.516,2.691-0.27c0.984,0.246,1.72,0.744,2.206,1.493c0.485,0.749,0.619,1.56,0.401,2.432
				c-0.225,0.901-0.716,1.547-1.472,1.942C292.912,109.816,292.027,109.886,291.014,109.633z"/>
		</g>
		<g>
			<path style="fill:#55A3F3;" d="M430.283,272.466l0.418-2.588c0.263-1.628,0.685-2.954,1.269-3.979
				c0.583-1.025,1.255-1.876,2.016-2.555c0.761-0.679,1.516-1.275,2.268-1.788c1.01-0.671,1.922-1.351,2.734-2.038
				c0.813-0.687,1.324-1.682,1.534-2.984c0.116-0.716,0.034-1.347-0.245-1.893c-0.28-0.546-0.649-0.998-1.109-1.356
				c-0.46-0.358-0.934-0.577-1.422-0.656c-0.945-0.153-1.769-0.06-2.475,0.277c-0.706,0.337-1.318,0.814-1.835,1.432
				c-0.518,0.618-0.983,1.278-1.397,1.979l-5.19-3.544c0.29-0.554,0.753-1.248,1.388-2.081c0.636-0.832,1.474-1.632,2.517-2.399
				c1.042-0.766,2.288-1.35,3.74-1.751c1.45-0.4,3.12-0.448,5.008-0.143c1.855,0.3,3.472,0.887,4.851,1.76
				c1.378,0.874,2.401,2.041,3.067,3.502c0.666,1.46,0.826,3.265,0.479,5.413c-0.289,1.791-0.767,3.2-1.434,4.228
				c-0.667,1.028-1.421,1.867-2.26,2.516c-0.84,0.65-1.679,1.291-2.515,1.924c-0.643,0.465-1.271,0.989-1.883,1.575
				c-0.613,0.586-1.136,1.294-1.571,2.126c-0.435,0.832-0.752,1.866-0.952,3.103l-0.166,1.025L430.283,272.466z M432.038,283.321
				c-1.172-0.189-2.081-0.662-2.727-1.417c-0.647-0.756-0.885-1.654-0.717-2.696c0.163-1.009,0.682-1.794,1.558-2.354
				c0.875-0.56,1.882-0.748,3.022-0.564c1.139,0.184,2.02,0.677,2.642,1.479c0.622,0.802,0.851,1.708,0.689,2.717
				c-0.168,1.042-0.662,1.822-1.48,2.341C434.205,283.346,433.21,283.511,432.038,283.321z"/>
		</g>
		<g>
			<path style="fill:#55A3F3;" d="M58.375,221.222l-0.068-2.588c-0.043-1.628,0.124-2.992,0.502-4.093
				c0.378-1.101,0.874-2.051,1.488-2.849c0.614-0.798,1.238-1.515,1.873-2.151c0.858-0.837,1.617-1.663,2.28-2.479
				c0.663-0.815,0.977-1.874,0.942-3.177c-0.019-0.716-0.214-1.314-0.585-1.792c-0.371-0.479-0.813-0.85-1.324-1.113
				c-0.512-0.263-1.012-0.389-1.5-0.376c-0.945,0.025-1.728,0.265-2.351,0.722c-0.623,0.456-1.13,1.032-1.518,1.726
				c-0.389,0.694-0.72,1.42-0.993,2.176l-5.685-2.488c0.18-0.591,0.502-1.349,0.966-2.273c0.464-0.924,1.131-1.854,2.003-2.789
				c0.871-0.935,1.973-1.73,3.308-2.384c1.334-0.654,2.946-1.006,4.834-1.056c1.855-0.049,3.532,0.224,5.03,0.82
				c1.498,0.596,2.704,1.541,3.618,2.836c0.914,1.295,1.399,3.017,1.456,5.165c0.047,1.791-0.159,3.246-0.618,4.365
				c-0.459,1.12-1.037,2.072-1.732,2.855c-0.696,0.784-1.393,1.56-2.088,2.327c-0.539,0.569-1.052,1.193-1.539,1.873
				c-0.487,0.681-0.865,1.464-1.135,2.351c-0.27,0.887-0.388,1.949-0.355,3.186l0.027,1.025L58.375,221.222z M62.066,231.434
				c-1.172,0.031-2.141-0.261-2.906-0.876c-0.766-0.615-1.162-1.443-1.19-2.485c-0.027-1.009,0.333-1.866,1.08-2.57
				c0.746-0.704,1.689-1.071,2.829-1.101c1.139-0.03,2.084,0.287,2.835,0.951c0.75,0.664,1.139,1.501,1.166,2.51
				c0.028,1.042-0.309,1.889-1.008,2.543C64.173,231.061,63.237,231.403,62.066,231.434z"/>
		</g>
	</g>
	<g>
		<g>
			<path style="fill:#FF8775;" d="M266.889,500h36.51l-1.284-75.006c-4.891-2.67-9.968-4.996-15.184-6.954L266.889,500z"/>
			<path style="fill:#55A3F3;" d="M286.931,418.04c5.217,1.958,10.294,4.284,15.184,6.954l-1.105-64.531L286.931,418.04z"/>
		</g>
		<g>
			<path style="fill:#FF8775;" d="M400.939,321.129c-2.63-1.838-4.363-3.161-4.772-3.825c-2.565-4.168-1.884-46.606-1.884-46.606
				l-42.929,28.371l-0.409,20.465c0,0-4.479,1.939-10.779,5.324l17.072,40.108L400.939,321.129z"/>
			<path style="fill:#55A3F3;" d="M456.135,373.151c-2.408-18.235-41.325-42.328-55.195-52.022l-43.702,43.836l-17.072-40.108
				c-13.129,7.054-34.177,20.395-39.155,35.606C293.643,382.974,295.922,500,295.922,500h146.297c0,0,1.637-35.166,1.637-50.31
				C443.856,434.546,459,394.844,456.135,373.151z"/>
		</g>
		<g style="opacity:0.3;">
			<defs>
				<path id="SVGID_1_" style="opacity:0.3;" d="M456.135,373.151c-2.408-18.235-41.325-42.328-55.195-52.022l-43.702,43.836
					l-17.072-40.108c-13.129,7.054-34.177,20.395-39.155,35.606C293.643,382.974,295.922,500,295.922,500h146.297
					c0,0,1.637-35.166,1.637-50.31C443.856,434.546,459,394.844,456.135,373.151z"/>
			</defs>
			<clipPath id="SVGID_00000069382854528952986790000001482257939272199871_">
				<use xlink:href="#SVGID_1_"  style="overflow:visible;"/>
			</clipPath>
			<g style="clip-path:url(#SVGID_00000069382854528952986790000001482257939272199871_);">
				<g>
					
						<line style="fill:none;stroke:#2C54AC;stroke-width:0.9738;stroke-miterlimit:10;" x1="435.356" y1="301.56" x2="435.356" y2="539.175"/>
					
						<line style="fill:none;stroke:#2C54AC;stroke-width:0.9738;stroke-miterlimit:10;" x1="406.598" y1="301.56" x2="406.598" y2="539.175"/>
					
						<line style="fill:none;stroke:#2C54AC;stroke-width:0.9738;stroke-miterlimit:10;" x1="377.84" y1="301.56" x2="377.84" y2="539.175"/>
					
						<line style="fill:none;stroke:#2C54AC;stroke-width:0.9738;stroke-miterlimit:10;" x1="349.082" y1="301.56" x2="349.082" y2="539.175"/>
					
						<line style="fill:none;stroke:#2C54AC;stroke-width:0.9738;stroke-miterlimit:10;" x1="320.324" y1="301.56" x2="320.324" y2="539.175"/>
				</g>
				<g>
					
						<line style="fill:none;stroke:#2C54AC;stroke-width:0.9738;stroke-miterlimit:10;" x1="282.591" y1="342.516" x2="458.121" y2="342.516"/>
					
						<line style="fill:none;stroke:#2C54AC;stroke-width:0.9738;stroke-miterlimit:10;" x1="282.591" y1="363.336" x2="458.121" y2="363.336"/>
					
						<line style="fill:none;stroke:#2C54AC;stroke-width:0.9738;stroke-miterlimit:10;" x1="282.591" y1="384.155" x2="458.121" y2="384.155"/>
					
						<line style="fill:none;stroke:#2C54AC;stroke-width:0.9738;stroke-miterlimit:10;" x1="282.591" y1="404.974" x2="458.121" y2="404.974"/>
					
						<line style="fill:none;stroke:#2C54AC;stroke-width:0.9738;stroke-miterlimit:10;" x1="282.591" y1="425.793" x2="458.121" y2="425.793"/>
					
						<line style="fill:none;stroke:#2C54AC;stroke-width:0.9738;stroke-miterlimit:10;" x1="282.591" y1="446.613" x2="458.121" y2="446.613"/>
					
						<line style="fill:none;stroke:#2C54AC;stroke-width:0.9738;stroke-miterlimit:10;" x1="282.591" y1="467.432" x2="458.121" y2="467.432"/>
					
						<line style="fill:none;stroke:#2C54AC;stroke-width:0.9738;stroke-miterlimit:10;" x1="282.591" y1="488.251" x2="458.121" y2="488.251"/>
					
						<line style="fill:none;stroke:#2C54AC;stroke-width:0.9738;stroke-miterlimit:10;" x1="282.591" y1="509.071" x2="458.121" y2="509.071"/>
					
						<line style="fill:none;stroke:#2C54AC;stroke-width:0.9738;stroke-miterlimit:10;" x1="282.591" y1="529.89" x2="458.121" y2="529.89"/>
				</g>
			</g>
		</g>
		<g>
			<path style="fill:#FF8775;" d="M392.252,261.481c-0.482-2.272-0.368-4.624-0.18-6.939c0.737-9.115,2.482-17.388,5.345-26.074
				c-4.23-0.063-8.398-2.004-11.17-5.201c-2.771-3.197-3.558-7.918-3.021-12.114c-1.994,3.198-5.508,5.402-9.255,5.804
				c-0.915,0.098-1.858,0.092-2.734-0.187c-2.41-0.768-3.768-3.474-3.782-6.003c-0.014-2.529,0.96-5.07,1.976-7.387
				c-6.014,7.099-16.176,8.957-25.48,9.045c-5.238,0.049-10.538-0.326-15.527-1.92c-2.748-0.878-5.392-2.166-7.734-3.844
				c-0.532,1.636-1.024,3.327-1.439,5.123c-6.393,27.646,0.762,68.479,4.641,86.786c1.232,5.816,6.286,10.046,12.229,10.197
				c6.522,0.165,14.921-0.207,21.09-2.54c14.317-5.415,28.98-14.64,41.395-34.854C395.572,268.617,393.09,265.43,392.252,261.481z"
				/>
			<path style="fill:#0A2A6B;" d="M383.965,177.255c-21.745-4.349-52.984-2.265-63.276,29.407c2.342,1.678,4.986,2.966,7.734,3.844
				c4.989,1.594,10.29,1.969,15.527,1.92c9.303-0.088,19.466-1.945,25.48-9.045c-1.016,2.316-1.99,4.857-1.976,7.387
				c0.014,2.529,1.372,5.235,3.782,6.003c0.877,0.279,1.819,0.285,2.734,0.187c3.748-0.402,7.261-2.606,9.255-5.804
				c-0.537,4.197,0.249,8.918,3.021,12.114c2.771,3.197,6.939,5.138,11.17,5.201c-2.863,8.685-4.608,16.959-5.345,26.074
				c-0.187,2.315-0.302,4.667,0.18,6.939c0.838,3.948,3.32,7.136,6.353,9.892c4.172-6.793,8.091-14.824,11.658-24.373
				C424.44,209.041,406.832,181.828,383.965,177.255z"/>
		</g>
		<g>
			<path style="fill:#FF8775;" d="M414.885,256.869c-1.549,5.661-5.353,11.065-10.173,14.453c-1.509,1.061-3.154,1.946-4.803,2.179
				c-3.72,0.524-6.572-2.531-7.143-6.271c-0.571-3.74,0.682-7.948,2.348-11.834c2.154-5.025,5.668-10.38,10.48-11.858
				C413.353,241.154,416.804,249.857,414.885,256.869z"/>
			<path style="fill:#FF8775;" d="M396.287,268.909c1.685-0.634,3.299-1.759,4.602-3.205c0.262-0.291,0.521-0.612,0.628-0.977
				c0.205-0.698-0.202-1.277-0.589-1.742c-0.781-0.94-1.562-1.879-2.344-2.819c-0.156-0.188-0.317-0.388-0.348-0.655
				c-0.035-0.295,0.094-0.618,0.22-0.922c1.597-3.866,3.43-8.041,6.769-10.475c0.902-0.657,1.911-1.165,2.901-1.249
				c1.469-0.125,2.708,0.71,3.47,1.87c0.762,1.16,1.118,2.618,1.436,4.065c0,0-0.401,8.083-6.312,13.317
				C400.809,271.352,396.287,268.909,396.287,268.909z"/>
			<g>
				<path style="fill:#0A2A6B;" d="M413.032,252.801c-0.507-1.51-0.968-3.109-1.999-4.213c-0.497-0.547-1.123-0.961-1.792-1.118
					c-0.67-0.159-1.351-0.078-2.013,0.201c-1.31,0.58-2.507,1.614-3.476,2.771c-0.992,1.156-1.814,2.478-2.527,3.866
					c-0.738,1.378-1.368,2.829-2,4.294c-0.17,0.369-0.322,0.74-0.306,0.823c-0.003,0.025-0.002,0.064,0.083,0.185l0.352,0.448
					c0.501,0.625,0.993,1.257,1.48,1.894c0.248,0.328,0.48,0.609,0.747,0.984c0.252,0.366,0.509,0.854,0.485,1.423
					c-0.022,0.569-0.327,1.035-0.614,1.354c-0.295,0.327-0.586,0.597-0.9,0.873c-1.264,1.054-2.701,1.914-4.265,2.324
					c1.434-0.728,2.717-1.68,3.75-2.855c0.504-0.569,1.115-1.219,1.04-1.699c-0.011-0.484-0.613-1.038-1.148-1.651
					c-0.537-0.595-1.069-1.194-1.591-1.801l-0.411-0.48c-0.158-0.194-0.354-0.525-0.379-0.904c-0.016-0.732,0.242-1.095,0.358-1.465
					c0.597-1.493,1.232-2.988,1.984-4.447c1.532-2.853,3.61-5.764,6.936-7.039c0.833-0.284,1.83-0.359,2.699-0.042
					c0.869,0.307,1.58,0.902,2.081,1.6C412.574,249.575,412.843,251.215,413.032,252.801z"/>
			</g>
		</g>
		<path style="fill:#0A2A6B;" d="M351.186,307.472c0,0,11.272-2.79,16.956-6.626C380.56,292.466,386.684,283,386.684,283
			s-6.676,15.568-16.132,22.74c-9.456,7.172-19.537,10.274-19.537,10.274L351.186,307.472z"/>
		<path style="fill:#0A2A6B;" d="M330.544,244.731c0,2.501-1.224,4.528-2.734,4.528c-1.51,0-2.734-2.027-2.734-4.528
			s1.224-4.528,2.734-4.528C329.32,240.203,330.544,242.23,330.544,244.731z"/>
		<path style="fill:#0A2A6B;" d="M362.549,251.32c0,2.501-1.224,4.528-2.734,4.528c-1.51,0-2.734-2.027-2.734-4.528
			s1.224-4.528,2.734-4.528C361.325,246.792,362.549,248.82,362.549,251.32z"/>
		<g>
			<path style="fill:#0A2A6B;" d="M343.355,243.261c-1.383,2.201-2.645,4.437-3.749,6.738c-1.102,2.3-2.051,4.659-2.83,7.068
				c-0.792,2.406-1.379,4.868-1.831,7.354c-0.426,2.49-0.698,5.01-0.765,7.546l-0.56-0.775c3.571,1.368,7.297,2.345,11.14,3.077
				c-3.914,0.178-7.872-0.392-11.668-1.515l-0.536-0.158l-0.025-0.616c-0.105-2.631,0.044-5.279,0.473-7.883
				c0.403-2.609,1.106-5.168,2.013-7.641c0.92-2.47,2.08-4.847,3.472-7.071C339.882,247.161,341.5,245.084,343.355,243.261z"/>
		</g>
		<path style="fill:#0A2A6B;" d="M339.678,222.33c-9.069-0.038-17.801,5.419-21.602,13.653c4.97-5.699,13.198-8.335,20.555-6.586
			C339.12,227.158,339.474,224.612,339.678,222.33z"/>
		<path style="fill:#0A2A6B;" d="M373.682,241.51c-1.974-3.33-5.195-5.787-8.702-7.425c-3.507-1.638-7.315-2.521-11.112-3.275
			c0.543-2.266,0.897-4.43,1.561-6.664C363.448,227.225,370.826,233.41,373.682,241.51z"/>
		<g>
			<path style="fill:#0A2A6B;" d="M338.026,285.516c-3.477-0.617-6.489-0.03-6.727,1.311c-0.196,1.107,1.561,2.38,4.136,3.139
				c2.113-1.615,4.746-2.553,7.404-2.619C341.79,286.568,340.056,285.876,338.026,285.516z"/>
			<path style="fill:#FF4648;" d="M342.84,287.347c-2.658,0.066-5.291,1.004-7.404,2.619c0.544,0.16,1.123,0.299,1.729,0.407
				c3.477,0.617,6.489,0.03,6.727-1.311C343.991,288.503,343.588,287.903,342.84,287.347z"/>
		</g>
		<g>
			<path style="fill:#FF8775;" d="M386.684,407.932l-12.526,16.673l-78.462-62.523c0,0-21.242-7.221-27.199-12.581
				c-5.957-5.361-19.061-32.96-24.422-31.669c-5.361,1.29-8.935,19.16-5.659,31.074c3.276,11.913,8.339,21.742,13.7,24.72
				c5.361,2.978,43.186,10.722,43.186,10.722s40.207,50.929,50.631,61.949c10.424,11.02,46.462,41.399,46.462,41.399l35.442-37.527
				c0,0-10.722-15.487-21.742-26.507C395.076,412.641,386.684,407.932,386.684,407.932z"/>
			<g>
				<path style="fill:#0A2A6B;" d="M380.368,416.34c3.206-5.75,6.561-11.41,10.063-16.977c3.481-5.582,7.095-11.078,10.828-16.503
					c1.896-2.694,3.795-5.384,5.812-8.008c2.008-2.622,4.197-5.188,6.636-7.442c4.832-4.564,10.267-8.42,16.069-11.535
					c-2.69,1.897-5.308,3.872-7.798,5.998c-2.506,2.102-4.91,4.313-7.172,6.646c-1.128,1.169-2.206,2.381-3.251,3.615
					c-1.028,1.25-2.014,2.531-2.971,3.859c-1.943,2.621-3.822,5.309-5.682,8.008l-11.171,16.218
					C388.013,405.632,384.226,411.006,380.368,416.34z"/>
			</g>
			<g>
				<path style="fill:#0A2A6B;" d="M444.835,428.985c-1.806,2.779-3.762,5.431-5.772,8.038c-2,2.615-4.089,5.155-6.196,7.68
					c-2.135,2.501-4.289,4.985-6.533,7.395c-2.234,2.418-4.522,4.789-6.962,7.033c1.804-2.781,3.759-5.433,5.769-8.04
					c2-2.615,4.09-5.154,6.198-7.678c2.137-2.499,4.291-4.984,6.535-7.393C440.11,433.602,442.397,431.23,444.835,428.985z"/>
			</g>
			<g>
				<path style="fill:#0A2A6B;" d="M371.084,422.173c2.583,1.837,5.176,3.57,7.776,5.332c2.605,1.75,5.19,3.563,7.674,5.553
					c2.459,2.019,4.809,4.231,6.77,6.785c1.964,2.533,3.563,5.417,4.312,8.51c-1.527-2.78-3.4-5.247-5.502-7.5
					c-2.113-2.242-4.42-4.3-6.839-6.243c-2.4-1.973-4.916-3.844-7.346-5.861C375.495,426.747,373.108,424.622,371.084,422.173z"/>
			</g>
			<g>
				<path style="fill:#0A2A6B;" d="M237.296,336.257c0.314-0.43,0.902-0.575,1.419-0.493c0.534,0.076,0.997,0.407,1.356,0.791
					c0.707,0.797,1.181,1.733,1.657,2.661c0.923,1.876,1.58,3.858,2.337,5.776c1.519,3.842,3.184,7.624,5.113,11.271
					c0.968,1.822,1.914,3.659,3.24,5.115c1.309,1.456,3.072,2.421,4.955,3.11c3.824,1.303,7.922,2.077,11.978,2.496l-0.617,1.15
					c-1.055-1.261-2.647-2.064-4.276-2.896c-0.816-0.419-1.654-0.863-2.458-1.409c-0.802-0.558-1.534-1.212-2.176-1.944
					c-1.269-1.472-2.214-3.215-2.719-5.084c-0.528-1.862-0.61-3.85-0.239-5.761l0.123-0.635l0.637,0.081
					c2.037,0.259,3.975,0.939,5.777,1.797c1.802,0.867,3.483,1.903,5.148,2.919c1.668,1.013,3.298,2.052,5.017,2.892
					c1.705,0.872,3.514,1.434,5.404,1.959c1.876,0.521,3.803,1.139,5.544,2.128c1.755,0.957,3.312,2.232,4.661,3.677
					c2.715,2.885,4.625,6.432,5.766,10.16c-1.389-3.638-3.412-7.061-6.189-9.744c-1.379-1.342-2.932-2.497-4.626-3.374
					c-1.687-0.896-3.52-1.432-5.414-1.902c-1.882-0.465-3.835-1.012-5.637-1.872c-1.807-0.836-3.522-1.82-5.189-2.831
					c-3.319-2.002-6.701-4.005-10.422-4.433l0.76-0.553c-0.309,1.683-0.225,3.446,0.262,5.1c0.462,1.66,1.324,3.205,2.452,4.49
					c0.575,0.635,1.211,1.207,1.904,1.705c0.705,0.488,1.482,0.913,2.288,1.336c1.591,0.844,3.377,1.713,4.69,3.295l1.119,1.348
					l-1.737-0.198c-4.174-0.476-8.273-1.279-12.284-2.684c-1.986-0.735-3.971-1.841-5.393-3.538
					c-1.426-1.666-2.333-3.592-3.257-5.443c-1.824-3.742-3.464-7.577-4.791-11.517c-0.675-1.968-1.237-3.96-2.061-5.846
					c-0.42-0.932-0.87-1.879-1.489-2.68c-0.32-0.386-0.731-0.721-1.231-0.823C238.213,335.75,237.636,335.849,237.296,336.257z"/>
			</g>
			<g>
				<path style="fill:#0A2A6B;" d="M239.781,323.648c1.539,0.623,2.491,2.115,3.163,3.543c0.667,1.467,1.228,2.939,1.835,4.41
					l3.54,8.842c1.234,2.939,2.29,5.909,3.776,8.571c0.796,1.359,1.593,2.711,2.475,3.997c0.91,1.253,1.844,2.541,3.197,3.338
					l-0.056,0.139c-1.576-0.508-2.794-1.719-3.873-2.898c-1.092-1.201-2.031-2.512-2.926-3.838
					c-1.883-2.748-2.754-5.894-3.774-8.873l-3.084-9.011c-0.521-1.495-0.982-3.031-1.537-4.493
					c-0.565-1.434-1.364-2.895-2.797-3.592L239.781,323.648z"/>
			</g>
			<g>
				<path style="fill:#0A2A6B;" d="M244.848,318.684c2.397,2.669,3.925,5.991,5.269,9.273c1.309,3.316,2.58,6.598,4.332,9.65
					c1.72,3.069,3.794,5.911,5.82,8.787c2.04,2.885,4.077,5.72,6.665,8.168l-0.09,0.12c-1.558-0.896-2.954-2.071-4.231-3.341
					c-1.288-1.267-2.432-2.651-3.546-4.049c-2.222-2.811-4.07-5.916-5.678-9.122c-1.657-3.192-2.817-6.61-3.974-9.947
					c-1.153-3.335-2.46-6.663-4.682-9.441L244.848,318.684z"/>
			</g>
		</g>
		<g>
			<path style="fill:#0A2A6B;" d="M297.053,392.729l-0.072,11.879l-0.17,11.873c-0.107,7.915-0.319,15.826-0.373,23.737
				c-0.184,7.909-0.178,15.816-0.201,23.731c-0.025,3.957-0.022,7.913,0.004,11.87c-0.02,3.958,0.027,7.915,0.078,11.875
				c-0.39-3.944-0.584-7.901-0.813-11.856c-0.175-3.957-0.307-7.916-0.423-11.876c-0.216-7.917-0.21-15.845-0.144-23.767
				c0.179-7.92,0.369-15.837,0.723-23.749l0.587-11.864C296.51,400.631,296.727,396.677,297.053,392.729z"/>
		</g>
		<polygon style="fill:#0A2A6B;" points="406.518,324.941 400.939,321.129 357.237,364.965 340.166,324.857 334.036,328.305 
			354.61,379.055 		"/>
		<g style="opacity:0.4;">
			<g>
				<path style="fill:#55A3F3;" d="M323.905,200.567c2.202,0.032,4.402,0.029,6.597-0.081c2.194-0.121,4.384-0.299,6.561-0.575
					c4.356-0.527,8.663-1.42,12.874-2.62c4.217-1.176,8.34-2.707,12.3-4.552c3.927-1.874,7.714-4.159,10.642-7.356l1.617-1.765
					l-0.844,2.235c-0.488,1.293-0.88,2.62-0.82,3.936c0.055,1.288,0.612,2.609,1.663,3.284c1.05,0.694,2.466,0.696,3.785,0.416
					c1.33-0.287,2.65-0.804,3.932-1.337c2.569-1.094,4.949-2.608,7.131-4.364c2.172-1.774,4.076-3.875,5.691-6.189
					c-2.943,4.818-7.371,8.762-12.557,11.145c-1.305,0.58-2.612,1.136-4.034,1.483c-1.389,0.322-3.04,0.434-4.409-0.44
					c-1.362-0.874-2.006-2.459-2.087-3.954c-0.078-1.521,0.352-2.964,0.842-4.301l0.773,0.47c-3.026,3.336-6.889,5.771-10.913,7.613
					c-4.036,1.839-8.209,3.349-12.483,4.503c-4.271,1.16-8.647,1.91-13.042,2.342C332.726,200.882,328.296,200.908,323.905,200.567z
					"/>
			</g>
			<g>
				<path style="fill:#55A3F3;" d="M398.63,183.416c-1.703,3.93-3.309,7.924-4.109,12.092c-0.798,4.138-0.808,8.496,0.594,12.448
					c0.651,1.984,1.697,3.817,3.028,5.427c1.343,1.606,2.977,2.951,4.737,4.109c1.77,1.145,3.7,2.056,5.711,2.737
					c1.999,0.712,4.098,1.225,6.248,1.119c-2.137,0.335-4.324-0.087-6.395-0.651c-2.078-0.598-4.09-1.448-5.969-2.551
					c-3.752-2.186-6.883-5.669-8.304-9.864c-1.395-4.186-1.38-8.717-0.399-12.932c0.497-2.111,1.19-4.164,2.015-6.152
					C396.643,187.221,397.584,185.289,398.63,183.416z"/>
			</g>
			<g>
				<path style="fill:#55A3F3;" d="M405.109,190.081c-0.348,1.048-0.647,2.1-0.808,3.176c-0.192,1.067-0.287,2.147-0.268,3.222
					c0.035,2.144,0.431,4.278,1.298,6.215c0.845,1.941,2.17,3.665,3.782,5.065c0.807,0.702,1.704,1.305,2.668,1.791
					c0.952,0.517,1.985,0.877,3.055,1.146c-1.106-0.045-2.201-0.317-3.255-0.699c-1.044-0.413-2.033-0.97-2.947-1.637
					c-1.827-1.338-3.287-3.18-4.217-5.263c-0.909-2.09-1.3-4.39-1.149-6.638C403.405,194.212,404.018,192.005,405.109,190.081z"/>
			</g>
			<g>
				<path style="fill:#55A3F3;" d="M369.94,175.923c-0.492,0.579-0.994,1.156-1.506,1.726l-1.66,1.592l-1.808,1.429l-1.916,1.288
					c-2.622,1.625-5.523,2.793-8.521,3.536c-3.004,0.72-6.117,1.017-9.193,0.781l-2.294-0.263l-2.263-0.437l-2.206-0.651
					c-0.717-0.271-1.428-0.552-2.132-0.841c0.742,0.187,1.476,0.381,2.204,0.586l2.23,0.425l2.243,0.29l2.254,0.121
					c3.005,0.05,6.01-0.264,8.92-0.984c2.915-0.698,5.728-1.801,8.374-3.228C365.307,179.858,367.75,178.043,369.94,175.923z"/>
			</g>
		</g>
	</g>
	<g>
		<g>
			<path style="fill:#0A2A6B;" d="M242.716,453.411l-21.455-76.166l-17.76,70.254l2.837,10.237
				C218.525,459.871,231.367,458.34,242.716,453.411z"/>
			<path style="fill:#FF8775;" d="M255.84,500l-13.123-46.589c-11.349,4.929-24.191,6.461-36.378,4.326L218.051,500H255.84z"/>
		</g>
		<path style="fill:#0A2A6B;" d="M168.163,349.544l-37.76-13.452c0,0-54.287,29.765-59.474,54.9
			C65.743,416.127,87.287,500,87.287,500h146.419c0,0-21.943-48.071-21.943-59.789c0-11.717,15.958-54.826,8.777-64.191
			c-7.181-9.365-52.616-34.501-52.616-34.501L168.163,349.544z"/>
		<path style="fill:#FF8775;" d="M168.163,349.544c-13.861,2.539-28.563-2.774-37.76-13.452c1.558-7.441,2.246-15.063,2.047-22.662
			c-0.093-3.558-0.391-7.161-1.6-10.509c-0.822-2.277-2.047-4.384-3.265-6.477c-3.392-5.827-6.784-11.654-10.176-17.481
			c-1.842-3.165-3.707-6.382-4.606-9.932c-1.784-7.04,0.434-14.464,3.337-21.121c5.623-12.891,14.314-24.953,26.632-31.74
			c12.318-6.787,28.64-7.322,39.898,1.106c4.415,3.305,10.319,6.461,11.518,11.845c2.841,12.758,5.689,25.557,6.888,38.573
			c1.199,13.015,0.71,26.329-3.026,38.854c-1.686,5.652-4.204,11.354-8.843,14.997c-3.134,2.461-7.009,3.794-10.897,4.669
			c-3.362,0.756-6.907,1.195-10.227,0.274C167.771,333.807,167.841,342.225,168.163,349.544z"/>
		<path style="fill:#0A2A6B;" d="M107.842,228.102c-3.695,1.878-6.74,4.867-9.165,8.23c-9.266,12.851-9.245,31.003-2.114,45.152
			c7.13,14.148,21.26,27.2,35.911,33.229c0.043-7.11-0.831-16.45-2.69-23.313c3.815-0.93,7.325-3.068,9.901-6.031
			c-3.802-14.543-7.728-28.842-11.529-43.385c8.544,2.104,17.894,0.553,26.057-2.733c8.162-3.286,15.418-8.518,21.965-14.396
			c1.307,3.703,4.328,6.585,7.809,8.402c3.481,1.817,7.446,2.551,11.371,2.665c0.444,2.292,0.841,4.57,1.285,6.862
			c6.863-4.293,12.951-11.961,12.034-20.004c-0.24-2.101-0.908-4.135-1.753-6.073c-3.12-7.157-8.776-13.177-15.725-16.737
			c-4.13-2.115-8.649-3.367-13.197-4.289c-15.145-3.07-31.001-2.573-45.924,1.44c-4.72,1.269-9.417,2.919-13.414,5.733
			C110.848,208.354,106.625,218.622,107.842,228.102z"/>
		<g>
			<path style="fill:#FF8775;" d="M114.248,287.666c1.549,5.661,5.353,11.065,10.173,14.453c1.509,1.061,3.154,1.946,4.803,2.179
				c3.72,0.525,6.572-2.531,7.143-6.271c0.571-3.74-0.682-7.948-2.348-11.835c-2.154-5.025-5.668-10.38-10.48-11.858
				C115.78,271.952,112.329,280.655,114.248,287.666z"/>
			<path style="fill:#FF8775;" d="M132.846,299.707c-1.685-0.634-3.299-1.759-4.602-3.205c-0.262-0.291-0.521-0.612-0.628-0.977
				c-0.205-0.698,0.202-1.277,0.589-1.742c0.781-0.94,1.562-1.879,2.344-2.819c0.156-0.188,0.317-0.387,0.348-0.655
				c0.034-0.295-0.094-0.618-0.22-0.922c-1.597-3.866-3.43-8.041-6.769-10.474c-0.902-0.657-1.911-1.165-2.901-1.249
				c-1.469-0.125-2.708,0.71-3.47,1.87c-0.762,1.16-1.119,2.618-1.436,4.065c0,0,0.401,8.083,6.312,13.317
				C128.324,302.149,132.846,299.707,132.846,299.707z"/>
			<g>
				<path style="fill:#0A2A6B;" d="M116.101,283.599c0.189-1.586,0.458-3.226,1.426-4.674c0.501-0.698,1.212-1.293,2.081-1.6
					c0.869-0.317,1.866-0.242,2.699,0.042c3.326,1.274,5.405,4.186,6.936,7.039c0.753,1.458,1.388,2.954,1.985,4.447
					c0.116,0.369,0.375,0.733,0.358,1.464c-0.025,0.38-0.222,0.71-0.379,0.904l-0.411,0.48c-0.522,0.607-1.055,1.206-1.591,1.801
					c-0.535,0.613-1.137,1.167-1.148,1.651c-0.075,0.48,0.536,1.13,1.04,1.699c1.032,1.175,2.316,2.128,3.75,2.855
					c-1.564-0.41-3.001-1.27-4.265-2.324c-0.314-0.276-0.605-0.546-0.9-0.873c-0.287-0.318-0.592-0.784-0.614-1.354
					c-0.024-0.569,0.233-1.057,0.485-1.423c0.267-0.375,0.499-0.656,0.747-0.984c0.487-0.636,0.979-1.269,1.48-1.894l0.351-0.448
					c0.085-0.121,0.086-0.16,0.083-0.185c0.016-0.083-0.136-0.454-0.305-0.823c-0.632-1.464-1.262-2.916-2-4.294
					c-0.713-1.388-1.535-2.71-2.527-3.866c-0.969-1.158-2.166-2.191-3.476-2.772c-0.661-0.279-1.342-0.36-2.013-0.201
					c-0.669,0.157-1.296,0.571-1.792,1.118C117.069,280.489,116.608,282.089,116.101,283.599z"/>
			</g>
		</g>
		<g>
			<path style="fill:#0A2A6B;" d="M180.168,256.267c0.764,2.45,1.405,4.923,2.011,7.403c0.6,2.48,1.143,4.971,1.656,7.467
				l0.728,3.741c0.255,1.21,0.524,2.345,1.102,3.247c0.571,0.914,1.44,1.665,2.432,2.313c0.999,0.645,2.128,1.16,3.271,1.706
				l0.748,0.357l-0.333,0.68c-1.58,3.23-4.337,5.683-7.401,7.16c1.3-1.108,2.519-2.274,3.533-3.583
				c1.03-1.292,1.853-2.715,2.443-4.21l0.415,1.037c-1.208-0.427-2.432-0.916-3.617-1.587c-1.183-0.66-2.334-1.576-3.136-2.82
				c-0.82-1.248-1.168-2.647-1.396-3.924l-0.646-3.777c-0.399-2.517-0.77-5.039-1.082-7.572
				C180.588,261.369,180.317,258.829,180.168,256.267z"/>
		</g>
		<path style="fill:#0A2A6B;" d="M167.146,269.405c0,2.501-1.224,4.528-2.734,4.528c-1.51,0-2.734-2.027-2.734-4.528
			s1.224-4.528,2.734-4.528C165.922,264.877,167.146,266.904,167.146,269.405z"/>
		<path style="fill:#0A2A6B;" d="M195.86,265.888c0,2.501-1.224,4.528-2.734,4.528c-1.51,0-2.734-2.027-2.734-4.528
			s1.224-4.528,2.734-4.528C194.636,261.36,195.86,263.388,195.86,265.888z"/>
		<g>
			<path style="fill:#0A2A6B;" d="M147.434,261.544c0.553-2.248,1.468-4.418,2.63-6.493c1.191-2.055,2.713-3.969,4.564-5.587
				c0.926-0.811,1.886-1.611,2.935-2.309c1.051-0.691,2.23-1.191,3.467-1.456c1.237-0.262,2.515-0.35,3.773-0.199
				c1.253,0.136,2.491,0.482,3.586,1.164l-0.038,0.398l-3.23,1.234c-1.004,0.408-1.96,0.803-2.895,1.221
				c-0.935,0.415-1.866,0.792-2.834,1.152c-0.97,0.352-1.939,0.776-2.825,1.343c-1.774,1.14-3.413,2.571-4.879,4.209
				c-1.498,1.621-2.748,3.493-3.881,5.472L147.434,261.544z"/>
		</g>
		<g>
			<path style="fill:#0A2A6B;" d="M199.354,255.322c-1.254-1.518-2.643-2.853-4.224-3.888c-1.552-1.059-3.223-1.891-4.942-2.507
				c-0.862-0.307-1.771-0.486-2.671-0.629c-0.899-0.15-1.766-0.356-2.632-0.638c-1.74-0.584-3.486-1.15-5.494-2.132l-0.027-0.399
				c1.92-1.233,4.129-1.535,6.257-1.4c2.168,0.097,4.09,1.264,5.917,2.297c1.848,1.043,3.519,2.364,4.917,3.91
				c1.371,1.566,2.519,3.303,3.245,5.187L199.354,255.322z"/>
		</g>
		<g>
			<path style="fill:#0A2A6B;" d="M185.188,302.19c3.477-0.617,6.489-0.03,6.727,1.311c0.196,1.107-1.561,2.38-4.136,3.139
				c-2.113-1.615-4.746-2.553-7.404-2.619C181.424,303.241,183.159,302.55,185.188,302.19z"/>
			<path style="fill:#FF4648;" d="M180.375,304.02c2.658,0.066,5.291,1.004,7.404,2.619c-0.544,0.16-1.123,0.299-1.729,0.406
				c-3.477,0.617-6.489,0.03-6.727-1.311C179.224,305.176,179.626,304.576,180.375,304.02z"/>
		</g>
		<g>
			<path style="fill:#FF8775;" d="M127.971,423.512l16.086,16.7c0,0,13.12-96.694,12.855-104.431
				c-0.265-7.737-5.511-26.288-1.315-26.979c4.196-0.691,12.487,17.686,12.487,17.686s53.257-9.515,57.453-8.7
				c4.196,0.814-2.098,5.36-8.043,7.459c-5.945,2.098-11.156,3.196-11.156,3.196s1.716,2.081,2.395,4.701
				c0.388,1.498,0,4.749,0,4.749s0.486,3.486,0.034,5.131c-0.36,1.31-1.577,3.102-1.577,3.102s0.459,3.555-0.341,4.734
				c-1.295,1.908-3.271,2.725-3.271,2.725c-5.695,6.117-12.716,0.75-12.716,0.75l-4.387-0.108l-13.234-0.325
				c0,0-1.803,66.326-2.704,86.311c-0.901,19.985-6.911,51.836-6.911,51.836l-51.462-30.349c0,0,3.085-14.123,7.592-24.639
				C124.264,426.543,127.971,423.512,127.971,423.512z"/>
			<g>
				<path style="fill:#0A2A6B;" d="M155.479,350.431c0.034-3.616,0.149-7.229,0.226-10.845c0.045-1.813,0.092-3.595,0.039-5.394
					c-0.055-1.795-0.173-3.589-0.327-5.382c-0.33-3.584-0.778-7.164-1.119-10.771c-0.362-3.603-0.632-7.236-0.626-10.89l0.001-0.556
					l0.547-0.14c2.464-0.631,5.198,0.1,6.987,1.924c0.887,0.9,1.504,1.972,2.003,3.036c0.488,1.068,0.926,2.133,1.256,3.289
					c0.328,1.14,0.499,2.398,0.38,3.612c-0.111,1.192-0.296,2.213-0.027,3.167c0.258,0.972,0.785,1.963,1.383,2.848
					c0.612,0.886,1.325,1.708,2.149,2.41l-0.49-0.122l12.019-2.199c4.017-0.678,8.024-1.407,12.051-2.039
					c-3.958,0.974-7.936,1.849-11.903,2.776l-11.935,2.616l-0.266,0.058l-0.224-0.181c-1.863-1.502-3.32-3.454-4.056-5.834
					c-0.362-1.264-0.13-2.551-0.051-3.606c0.089-1.053-0.063-2.084-0.37-3.122c-0.304-1.027-0.742-2.066-1.21-3.058
					c-0.473-0.983-1.029-1.898-1.751-2.612c-1.424-1.405-3.636-2.039-5.59-1.556l0.547-0.695c-0.046,3.575,0.178,7.162,0.497,10.752
					l0.495,5.395c0.149,1.802,0.275,3.612,0.377,5.423c0.194,3.62,0.217,7.28-0.115,10.888
					C156.078,343.225,155.819,346.83,155.479,350.431z"/>
			</g>
			<g>
				<path style="fill:#0A2A6B;" d="M206.339,328.443c-1.281,0.601-2.593,1.058-3.917,1.464c-1.322,0.415-2.663,0.744-4.007,1.057
					c-1.35,0.285-2.705,0.552-4.078,0.734c-1.371,0.191-2.754,0.33-4.169,0.323c1.28-0.603,2.593-1.06,3.917-1.466
					c1.322-0.414,2.663-0.744,4.007-1.055c1.351-0.284,2.705-0.55,4.079-0.732C203.541,328.577,204.924,328.438,206.339,328.443z"/>
			</g>
			<g>
				<path style="fill:#0A2A6B;" d="M191.173,338.676c1.449-0.375,2.904-0.603,4.363-0.778c1.458-0.185,2.92-0.282,4.382-0.363
					c1.464-0.052,2.929-0.086,4.398-0.032c1.469,0.044,2.94,0.142,4.418,0.388c-1.449,0.377-2.904,0.606-4.362,0.781
					c-1.458,0.184-2.92,0.282-4.382,0.36c-1.464,0.05-2.929,0.084-4.398,0.03C194.122,339.017,192.651,338.921,191.173,338.676z"/>
			</g>
			<g>
				<path style="fill:#0A2A6B;" d="M191.93,345.768c1.247-0.406,2.529-0.615,3.812-0.734c1.284-0.128,2.571-0.131,3.852-0.095
					c1.28,0.064,2.555,0.168,3.82,0.365c1.266,0.188,2.524,0.435,3.776,0.821c-1.29,0.237-2.573,0.316-3.848,0.347
					c-1.276,0.041-2.544,0.001-3.808-0.036c-1.263-0.065-2.523-0.125-3.785-0.237C194.487,346.098,193.223,345.98,191.93,345.768z"
					/>
			</g>
			<g>
				<path style="fill:#0A2A6B;" d="M201.039,353.905c-1.01,0.324-2.023,0.499-3.036,0.623c-1.013,0.133-2.027,0.191-3.042,0.207
					c-1.015,0.013-2.03-0.019-3.046-0.124c-1.016-0.096-2.033-0.246-3.051-0.545c1.011-0.326,2.023-0.502,3.036-0.625
					c1.013-0.132,2.027-0.19,3.042-0.205c1.015-0.01,2.03,0.021,3.046,0.127C199.003,353.459,200.02,353.608,201.039,353.905z"/>
			</g>
			<g>
				<path style="fill:#0A2A6B;" d="M143.87,437.425c0.09,1.726,0.056,3.428-0.006,5.126c-0.053,1.698-0.171,3.388-0.284,5.078
					c-0.141,1.688-0.277,3.376-0.479,5.063c-0.192,1.688-0.415,3.376-0.765,5.069c-0.275-1.707-0.377-3.417-0.404-5.126
					c-0.036-1.71,0.038-3.416,0.153-5.119c0.143-1.701,0.326-3.399,0.619-5.084C142.987,440.748,143.344,439.072,143.87,437.425z"/>
			</g>
		</g>
		<g>
			<path style="fill:#55A3F3;" d="M128.974,424.773c-3.324-3.783-6.562-7.634-9.788-11.496c-3.227-3.861-6.385-7.778-9.581-11.664
				c-3.132-3.935-6.301-7.828-9.785-11.424c-3.477-3.59-7.346-6.843-11.767-9.267c2.306,1.017,4.472,2.344,6.532,3.81
				c2.042,1.494,3.957,3.158,5.778,4.912c3.637,3.524,6.826,7.455,10.018,11.34c3.131,3.939,6.3,7.846,9.399,11.811
				C122.883,416.758,125.971,420.731,128.974,424.773z"/>
		</g>
		<g>
			<path style="fill:#55A3F3;" d="M112.351,460.96c-0.371,1.79-0.729,3.579-1.011,5.38c-0.277,1.802-0.553,3.601-0.741,5.411
				c-0.203,1.808-0.315,3.624-0.432,5.436c-0.105,1.814-0.153,3.631-0.142,5.447l0.006,0.952l-0.763-0.582
				c-2.031-1.548-4.023-3.15-5.94-4.84c-1.925-1.68-3.805-3.41-5.634-5.194c-3.618-3.607-7.027-7.427-10.061-11.526
				c3.4,3.797,6.925,7.463,10.649,10.914c1.842,1.746,3.734,3.44,5.669,5.082c1.944,1.631,3.9,3.248,5.892,4.822l-0.757,0.37
				c0.015-1.836,0.088-3.671,0.219-5.501c0.119-1.832,0.359-3.653,0.624-5.467c0.28-1.812,0.586-3.62,1.005-5.403
				C111.347,464.478,111.799,462.704,112.351,460.96z"/>
		</g>
		<g>
			<path style="fill:#55A3F3;" d="M216.763,459.02l-2.719-9.346l-2.631-9.369l-0.015-0.055l0.005-0.069
				c0.327-4.883,0.764-9.756,1.149-14.633c0.378-4.878,0.825-9.751,1.271-14.623l0.664-7.309l0.731-7.303
				c0.479-4.87,1.009-9.735,1.578-14.597c-0.27,4.888-0.578,9.772-0.939,14.652l-0.527,7.321l-0.594,7.315
				c-0.392,4.877-0.784,9.754-1.245,14.625c-0.454,4.872-0.856,9.748-1.367,14.615l-0.011-0.124l2.369,9.439L216.763,459.02z"/>
		</g>
		<g style="opacity:0.47;">
			<g>
				<path style="fill:#55A3F3;" d="M108.289,223.229c6.202,1.833,12.71,1.874,19.116,1.94c6.421-0.003,12.845-0.544,19.115-1.829
					c6.267-1.279,12.362-3.443,17.893-6.631c2.758-1.598,5.401-3.404,7.808-5.492c2.402-2.092,4.587-4.433,6.47-6.999l0.714-0.973
					l0.09,1.197c0.252,3.341,1.406,6.575,3.087,9.484c1.693,2.912,3.94,5.503,6.518,7.694c5.158,4.361,12.083,6.635,18.908,6.098
					c-6.791,0.806-13.937-1.244-19.292-5.636c-2.666-2.183-5.014-4.785-6.814-7.752c-1.807-2.956-2.998-6.33-3.293-9.815
					l0.804,0.224c-3.816,5.287-8.868,9.611-14.507,12.832c-5.653,3.213-11.863,5.371-18.211,6.627
					c-3.173,0.649-6.389,1.064-9.613,1.292c-3.224,0.239-6.455,0.316-9.681,0.258c-3.226-0.057-6.448-0.217-9.658-0.552
					C114.536,224.85,111.335,224.284,108.289,223.229z"/>
			</g>
			<g>
				<path style="fill:#55A3F3;" d="M207.792,219.551c-1.319,0.003-2.637-0.216-3.927-0.541c-1.283-0.356-2.527-0.856-3.717-1.465
					c-2.383-1.223-4.493-2.953-6.258-4.967c-1.747-2.03-3.163-4.33-4.211-6.77c-0.523-1.221-0.977-2.467-1.361-3.732
					c-0.352-1.275-0.673-2.555-0.876-3.857c0.423,1.247,0.835,2.491,1.339,3.697c0.472,1.217,0.998,2.41,1.593,3.564
					c1.186,2.307,2.574,4.505,4.27,6.443c1.676,1.948,3.67,3.619,5.875,4.953C202.732,218.198,205.195,219.126,207.792,219.551z"/>
			</g>
			<g>
				<path style="fill:#55A3F3;" d="M171.169,194.83c-1.402,2.109-3.224,3.93-5.231,5.493c-2.029,1.542-4.248,2.82-6.538,3.925
					c-4.6,2.181-9.468,3.728-14.432,4.842c-2.495,0.507-5.021,0.848-7.559,1.06c-2.541,0.164-5.095,0.195-7.634-0.025
					c-2.536-0.254-5.048-0.698-7.503-1.36c-2.432-0.744-4.8-1.679-7.025-2.882c2.324,0.998,4.703,1.83,7.149,2.407
					c2.449,0.558,4.936,0.909,7.436,1.067c2.503,0.095,5.008,0.092,7.506-0.115c2.494-0.237,4.975-0.606,7.426-1.13
					c4.906-1.017,9.719-2.56,14.317-4.56c2.296-1.005,4.516-2.188,6.571-3.623C167.725,198.52,169.587,196.803,171.169,194.83z"/>
			</g>
			<g>
				<path style="fill:#55A3F3;" d="M119.076,242.789c0.346,1.911,0.458,3.864,0.434,5.816c-0.056,1.952-0.288,3.902-0.679,5.822
					c-0.794,3.841-2.327,7.527-4.417,10.858c-2.158,3.288-4.874,6.213-8.035,8.535c-1.584,1.155-3.261,2.176-5.012,3.039
					c-1.765,0.833-3.588,1.544-5.47,2.024c1.812-0.695,3.576-1.489,5.243-2.458c1.68-0.938,3.28-2.013,4.772-3.216
					c2.991-2.392,5.631-5.229,7.663-8.464c2.099-3.193,3.578-6.775,4.511-10.489C119.016,250.538,119.339,246.658,119.076,242.789z"
					/>
			</g>
			<g>
				<path style="fill:#55A3F3;" d="M106.217,237.476c-0.663,4.105-2.507,8.017-5.052,11.341c-2.562,3.311-5.873,6.094-9.673,7.782
					c3.395-2.375,6.406-5.16,8.882-8.392C102.867,244.989,104.791,241.367,106.217,237.476z"/>
			</g>
		</g>
	</g>
</g>
</svg>
